<?xml version="1.0" encoding="UTF-8"?>
<svg width="84px" height="23px" viewBox="0 0 84 23" version="1.1" xmlns="http://www.w3.org/2000/svg" xmlns:xlink="http://www.w3.org/1999/xlink">
    <title>Logos/HubSpot/Color</title>
    <g id="✋Symbols-(DON'T-UPLOAD)" stroke="none" stroke-width="1" fill="none" fill-rule="evenodd">
        <g id="Navigation/Primary-Media-Navigation/Idle" transform="translate(-180.000000, -84.000000)" fill-rule="nonzero">
            <g id="Logos/HubSpot" transform="translate(180.000000, 84.000000)">
                <polygon id="Path" fill="#33475B" points="8.95276067 3.3205062 8.95276067 9.74061174 2.88211112 9.74061174 2.88211112 3.3205062 0 3.3205062 0 18.6459194 2.88211112 18.6459194 2.88211112 12.4342856 8.95276067 12.4342856 8.95276067 18.6459194 11.8348718 18.6459194 11.8348718 3.3205062"></polygon>
                <g id="Group" transform="translate(13.986667, 3.320506)" fill="#33475B">
                    <path d="M7.58277143,10.3236688 C7.58277143,11.5917351 6.50384681,12.619706 5.17292585,12.619706 C3.84200489,12.619706 2.76308027,11.5917351 2.76308027,10.3236688 L2.76308027,3.81562363 L0,3.81562363 L0,10.3236688 C0,13.0430459 2.31376135,15.2475366 5.16793061,15.2475366 C8.02209988,15.2475366 10.3358612,13.0430459 10.3358612,10.3236688 L10.3358612,3.81562363 L7.58277143,3.81562363 L7.58277143,10.3236688 Z" id="Path"></path>
                    <path d="M28.0546844,4.48600939 C28.0546844,3.15203691 28.9809442,2.72913636 29.9956912,2.72913636 C30.813483,2.72913636 31.8938816,3.32201301 32.600351,4.04135189 L34.4100544,2.00979748 C33.5066299,0.845801103 31.6740912,0.0407942654 30.1740925,0.0407942654 C27.1769497,0.0407942654 25.0090163,1.71335915 25.0090163,4.48600939 C25.0090163,9.63016626 31.6084395,7.99839564 31.6084395,10.877111 C31.6084395,11.7650661 30.7035878,12.5496759 29.6674327,12.5496759 C28.0332762,12.5496759 27.503781,11.7881829 26.753068,10.9831761 L24.7449823,12.9725764 C26.0294721,14.4751652 27.6136762,15.2380179 29.5118667,15.2380179 C32.3591524,15.2380179 34.6498259,13.5450559 34.6498259,10.8988679 C34.6498259,5.18767075 28.0504027,6.9622213 28.0504027,4.48600939" id="Path"></path>
                    <path d="M68.8814789,12.8080395 C67.2487497,12.8080395 66.7849061,12.1349342 66.7849061,11.104199 L66.7849061,6.54204036 L69.3224871,6.54204036 L69.3224871,4.23036532 L66.7849061,4.23036532 L66.7849061,1.18031408 L63.9832912,2.37830567 L63.9832912,11.6712393 C63.9832912,14.0481852 65.7045075,15.2461768 68.0651143,15.2461768 C68.4353438,15.252603 68.8053406,15.2243647 69.1697755,15.1618686 L69.8534095,12.7645256 C69.545132,12.7849228 69.1911837,12.8053199 68.8814789,12.8053199" id="Path"></path>
                    <path d="M18.0998884,3.89177292 C16.7311932,3.89177292 15.7763891,4.26979978 14.8529837,5.1332784 L14.8529837,0.131901458 L12.0856218,0.131901458 L12.0856218,9.40171837 C12.0856218,12.8719505 14.7188259,15.2488964 17.677434,15.2488964 C20.960019,15.2488964 23.8472667,12.8297965 23.8472667,9.57169447 C23.8472667,6.35438674 21.1898,3.89313273 18.0998884,3.89313273 M18.0827619,12.5959094 C16.3486629,12.5959094 14.942898,11.2565336 14.942898,9.60432989 C14.942898,7.95212617 16.3486629,6.61275042 18.0827619,6.61275042 C19.8168609,6.61275042 21.2226259,7.95212617 21.2226259,9.60432989 C21.2226259,11.2565336 19.8168609,12.5959094 18.0827619,12.5959094" id="Shape"></path>
                    <path d="M48.1483864,9.43299397 C48.1483864,6.16945274 45.2668476,3.75579204 41.9785537,3.75579204 C39.0199456,3.75579204 36.3867415,6.1327379 36.3867415,9.60297008 L36.3867415,18.8782262 L39.1541034,18.8782262 L39.1541034,13.8700502 C40.0760816,14.732169 41.0323129,15.1115557 42.399581,15.1115557 C45.4894925,15.1115557 48.1469592,12.6516615 48.1469592,9.43299397 M45.5280272,9.40035856 C45.5280272,11.0525623 44.1222622,12.391938 42.3881633,12.391938 C40.6540643,12.391938 39.2482993,11.0525623 39.2482993,9.40035856 C39.2482993,7.74815484 40.6540643,6.4087791 42.3881633,6.4087791 C44.1222622,6.4087791 45.5280272,7.74815484 45.5280272,9.40035856" id="Shape"></path>
                </g>
                <path d="M70.7432308,7.48443307 L70.7432308,4.87000234 C71.4852747,4.54060852 71.9608982,3.83401771 71.9645285,3.05563081 L71.9645285,2.99460934 C71.9613928,1.8852036 71.0159201,0.986593377 69.8486588,0.98361309 L69.7844551,0.98361309 C68.6171938,0.986593377 67.6717211,1.8852036 67.6685854,2.99460934 L67.6685854,3.05563081 C67.6722157,3.83401771 68.1478392,4.54060852 68.889883,4.87000234 L68.889883,7.48443307 C67.8447177,7.63633412 66.8603326,8.04799545 66.0363838,8.6777417 L58.4831712,3.09224368 C58.5369345,2.90799078 58.5657025,2.717963 58.5687762,2.52677812 C58.5703512,1.27384281 57.5029545,0.256924394 56.1846786,0.255425206 C54.8664028,0.253929329 53.7964515,1.26841977 53.7948735,2.52135507 C53.793299,3.77429037 54.8606946,4.79120976 56.1789705,4.79270848 C56.5936427,4.79124123 57.0005961,4.68601014 57.3588925,4.48760116 L64.7851243,9.982245 C63.4161781,11.9451643 63.4529864,14.504907 64.8778631,16.4315357 L62.6178916,18.5794913 C62.4364746,18.5245931 62.247549,18.4953515 62.057179,18.4927052 C61.2637128,18.4927052 60.5483763,18.9469869 60.2447299,19.6437196 C59.9410836,20.3404522 60.1089252,21.1424261 60.6699906,21.6756822 C61.2310559,22.2089382 62.0748528,22.3684608 62.80792,22.0798647 C63.5409872,21.7912686 64.0189598,21.1113879 64.0189598,20.3572499 C64.0163417,20.1763018 63.9855713,19.9967173 63.9276478,19.8243291 L66.1633645,17.6994262 C68.1628325,19.1509779 70.900565,19.2695498 73.0306481,17.9968499 C75.1607311,16.72415 76.2350829,14.327902 75.7255344,11.9861405 C75.215986,9.6443791 73.2297254,7.84971446 70.7432308,7.48443307 M69.8172703,16.0843914 C68.1089469,16.0843914 66.7240771,14.768163 66.7240771,13.1445129 C66.7240771,11.5208628 68.1089469,10.2046343 69.8172703,10.2046343 C71.5255938,10.2046343 72.9104635,11.5208628 72.9104635,13.1445129 C72.9104635,14.768163 71.5255938,16.0843914 69.8172703,16.0843914" id="Shape" fill="#FF7A59"></path>
            </g>
        </g>
    </g>
</svg>