<?xml version="1.0" encoding="utf-8"?>
<!-- Generator: Adobe Illustrator 23.0.2, SVG Export Plug-In . SVG Version: 6.00 Build 0)  -->
<svg version="1.1" id="Layer_1" xmlns="http://www.w3.org/2000/svg" xmlns:xlink="http://www.w3.org/1999/xlink" x="0px" y="0px"
	 viewBox="0 0 105 198" enable-background="new 0 0 105 198" xml:space="preserve">
<g id="Page-1">
	<g id="Desktop-HD" transform="translate(-298.000000, -418.000000)">
		<g id="Group-3" transform="translate(298.000000, 418.000000)">
			<g id="Mask">
			</g>
			<defs>
				
					<filter id="Adobe_OpacityMaskFilter" filterUnits="userSpaceOnUse" x="0.72559" y="-8.74024" width="179.8726" height="206.45607">
					<feColorMatrix  type="matrix" values="1 0 0 0 0  0 1 0 0 0  0 0 1 0 0  0 0 0 1 0"/>
				</filter>
			</defs>
			<mask maskUnits="userSpaceOnUse" x="0.72559" y="-8.74024" width="179.8726" height="206.45607" id="mask-2_1_">
				<g filter="url(#Adobe_OpacityMaskFilter)">
					<rect id="path-1_1_" y="0.00002" fill-rule="evenodd" clip-rule="evenodd" fill="#FFFFFF" width="105" height="198"/>
				</g>
			</mask>
			<g id="Group" mask="url(#mask-2_1_)">
				<g transform="translate(0.000000, -10.000000)">
					
						<g id="Ebook-3" transform="translate(97.371190, 93.035874) rotate(-15.000000) translate(-97.371190, -93.035874) translate(31.340262, 15.000000)">
						<g>
							<g>
								<path fill-rule="evenodd" clip-rule="evenodd" fill="#00BDA5" d="M0,2.99425c0-1.65367,1.34945-2.99424,3.00502-2.99424
									L128.99495,0c1.65962,0,3.00502,1.34863,3.00502,2.99424l0.00002,150.01151c0,1.65367-1.34944,2.99423-3.00502,2.99423
									H3.00503c-1.65962,0-3.00502-1.34863-3.00502-2.99423L0,2.99425z"/>
							</g>
							
								<path id="Rectangle-2-Copy-8" opacity="0.2" fill-rule="evenodd" clip-rule="evenodd" fill="#FFFFFF" enable-background="new    " d="
								M27.77159,98.70796l76.4568-0.00001c1.52489,0,2.76106,1.23618,2.76106,2.76106l0,0
								c0,1.52489-1.23617,2.76106-2.76106,2.76106h-76.4568c-1.52489,0.00001-2.76106-1.23616-2.76106-2.76105l0,0
								C25.01053,99.94414,26.2467,98.70796,27.77159,98.70796z"/>
							
								<path id="Rectangle-2-Copy-7" opacity="0.2" fill-rule="evenodd" clip-rule="evenodd" fill="#FFFFFF" enable-background="new    " d="
								M27.77159,113.20353l76.4568-0.00001c1.52489,0,2.76106,1.23618,2.76106,2.76106l0,0
								c0,1.52489-1.23617,2.76106-2.76105,2.76106l-76.45681,0.00001c-1.52489,0-2.76106-1.23617-2.76106-2.76106l0,0
								C25.01053,114.4397,26.2467,113.20353,27.77159,113.20353z"/>
							
								<path id="Rectangle-2-Copy-6" opacity="0.2" fill-rule="evenodd" clip-rule="evenodd" fill="#FFFFFF" enable-background="new    " d="
								M27.77159,127.6991l76.45681-0.00001c1.52489,0,2.76106,1.23618,2.76106,2.76106l0,0
								c0,1.52489-1.23617,2.76106-2.76106,2.76106H27.77159c-1.52489,0-2.76106-1.23618-2.76106-2.76106l0,0
								C25.01053,128.93527,26.2467,127.6991,27.77159,127.6991z"/>
							<path id="Rectangle" fill-rule="evenodd" clip-rule="evenodd" fill="#FFFFFF" d="M28.01052,22.0885l75.97894-0.00001
								c1.65685,0,3,1.34314,3,3l0.00001,56.12388c0,1.65685-1.34315,3-3,3l-75.97894,0.00001c-1.65685,0-3-1.34315-3-3l0-56.12388
								C25.01052,23.43165,26.35366,22.0885,28.01052,22.0885z"/>
							<path id="Combined-Shape" fill-rule="evenodd" clip-rule="evenodd" fill="#F5C26B" d="M82.14442,44.38424
								c1.16608,0.45385,1.91872,1.55434,1.91872,2.80745V63.2532c0,1.66077-1.35072,3.01229-3.01054,3.01229H50.95124
								c-1.16006,0-2.19769-0.64864-2.70547-1.6909c-0.50978-1.04226-0.38133-2.25922,0.33116-3.17495l6.77371-7.99862
								c0.43151-0.60647,1.14601-1.04024,1.96087-1.16073c0.82087-0.11647,1.62569,0.09238,2.27797,0.59643l5.93478,6.60896
								c0.27697,0.1968,0.86102,0.14861,1.21826-0.24099l12.07024-14.02521C79.67779,44.23362,80.97834,43.93039,82.14442,44.38424z
								 M51.06315,46.24779c-1.72729,0-3.12631-1.39002-3.12631-3.10619c0-1.71618,1.39902-3.1062,3.12631-3.1062
								s3.12631,1.39002,3.12631,3.1062C54.18946,44.85777,52.79044,46.24779,51.06315,46.24779z"/>
						</g>
					</g>
					
						<g id="Ebook-1" transform="translate(84.030928, 115.992976) rotate(-15.000000) translate(-84.030928, -115.992976) translate(18.000000, 37.957101)">
						<g>
							<g>
								<path fill-rule="evenodd" clip-rule="evenodd" fill="#F2547D" d="M0,2.99425c0-1.65367,1.34945-2.99424,3.00502-2.99424
									L128.99495,0c1.65962,0,3.00502,1.34863,3.00502,2.99424l0.00002,150.01151c0,1.65367-1.34944,2.99423-3.00502,2.99423
									H3.00503c-1.65962,0-3.00502-1.34863-3.00502-2.99423L0,2.99425z"/>
							</g>
							<path opacity="0.2" fill-rule="evenodd" clip-rule="evenodd" fill="#FFFFFF" enable-background="new    " d="
								M27.77159,98.70796l76.4568-0.00001c1.52489,0,2.76106,1.23618,2.76106,2.76106l0,0
								c0,1.52489-1.23617,2.76106-2.76106,2.76106h-76.4568c-1.52489,0.00001-2.76106-1.23616-2.76106-2.76105l0,0
								C25.01053,99.94414,26.2467,98.70796,27.77159,98.70796z"/>
							<path opacity="0.2" fill-rule="evenodd" clip-rule="evenodd" fill="#FFFFFF" enable-background="new    " d="
								M27.77159,113.20353l76.4568-0.00001c1.52489,0,2.76106,1.23618,2.76106,2.76106l0,0
								c0,1.52489-1.23617,2.76106-2.76106,2.76106l-76.4568,0.00001c-1.52489,0-2.76106-1.23617-2.76106-2.76106l0,0
								C25.01053,114.4397,26.2467,113.20353,27.77159,113.20353z"/>
							<path opacity="0.2" fill-rule="evenodd" clip-rule="evenodd" fill="#FFFFFF" enable-background="new    " d="
								M27.77159,127.6991l76.45681-0.00001c1.52489,0,2.76106,1.23618,2.76106,2.76106l0,0
								c0,1.52489-1.23617,2.76106-2.76106,2.76106H27.77159c-1.52489,0-2.76106-1.23618-2.76106-2.76106l0,0
								C25.01053,128.93527,26.2467,127.6991,27.77159,127.6991z"/>
							<path fill-rule="evenodd" clip-rule="evenodd" fill="#FFFFFF" d="M28.01052,22.0885l75.97894-0.00001
								c1.65685,0,3,1.34314,3,3l0.00001,56.12388c0,1.65685-1.34315,3-3,3l-75.97894,0.00001c-1.65685,0-3-1.34315-3-3l0-56.12388
								C25.01052,23.43165,26.35366,22.0885,28.01052,22.0885z"/>
							<path fill-rule="evenodd" clip-rule="evenodd" fill="#6A78D1" d="M82.14442,44.38424
								c1.16608,0.45385,1.91872,1.55434,1.91872,2.80745V63.2532c0,1.66077-1.35072,3.01229-3.01054,3.01229H50.95124
								c-1.16006,0-2.19769-0.64864-2.70547-1.6909c-0.50978-1.04226-0.38133-2.25922,0.33116-3.17495l6.77371-7.99862
								c0.43151-0.60647,1.14601-1.04024,1.96086-1.16073c0.82087-0.11647,1.62569,0.09238,2.27797,0.59643l5.93478,6.60896
								c0.27697,0.1968,0.86102,0.14861,1.21826-0.24099l12.07024-14.02521C79.67779,44.23362,80.97834,43.93039,82.14442,44.38424z
								 M51.06315,46.24779c-1.72729,0-3.12631-1.39002-3.12631-3.10619c0-1.71618,1.39902-3.1062,3.12631-3.1062
								c1.72729,0,3.12632,1.39002,3.12632,3.1062C54.18946,44.85777,52.79044,46.24779,51.06315,46.24779z"/>
						</g>
					</g>
				</g>
			</g>
		</g>
	</g>
</g>
</svg>
