<?xml version="1.0" encoding="utf-8"?>
<!-- Generator: Adobe Illustrator 23.0.2, SVG Export Plug-In . SVG Version: 6.00 Build 0)  -->
<svg version="1.1" id="Layer_1" xmlns="http://www.w3.org/2000/svg" xmlns:xlink="http://www.w3.org/1999/xlink" x="0px" y="0px"
	 viewBox="0 0 104 198" enable-background="new 0 0 104 198" xml:space="preserve">
<title>Group 2</title>
<desc>Created with Sketch.</desc>
<g id="Page-1">
	<g id="Desktop-HD" transform="translate(-1019.000000, -418.000000)">
		<g id="Group-2" transform="translate(1019.000000, 418.000000)">
			<g id="Mask">
			</g>
			<defs>
				
					<filter id="Adobe_OpacityMaskFilter" filterUnits="userSpaceOnUse" x="-76.25539" y="-8.75642" width="179.87146" height="206.4593">
					<feColorMatrix  type="matrix" values="1 0 0 0 0  0 1 0 0 0  0 0 1 0 0  0 0 0 1 0"/>
				</filter>
			</defs>
			<mask maskUnits="userSpaceOnUse" x="-76.25539" y="-8.75642" width="179.87146" height="206.4593" id="mask-2_1_">
				<g filter="url(#Adobe_OpacityMaskFilter)">
					<rect id="path-1_1_" y="0.00002" fill-rule="evenodd" clip-rule="evenodd" fill="#FFFFFF" width="105" height="198"/>
				</g>
			</mask>
			<g mask="url(#mask-2_1_)">
				<g transform="translate(-77.000000, -10.000000)">
					
						<g id="Ebook-2" transform="translate(84.030928, 93.035874) rotate(-345.000000) translate(-84.030928, -93.035874) translate(18.000000, 15.000000)">
						<g>
							<g>
								<path fill-rule="evenodd" clip-rule="evenodd" fill="#6A78D1" d="M0,2.99425c0-1.65367,1.34945-2.99424,3.00502-2.99424
									l125.98994,0.00001c1.65962,0,3.00502,1.34863,3.00502,2.99424l-0.00002,150.01151
									c0,1.65367-1.34944,2.99423-3.00502,2.99423L3.00501,155.99998c-1.65962,0-3.00502-1.34863-3.00502-2.99423L0,2.99425z"/>
							</g>
							
								<path id="Rectangle-2-Copy-8" opacity="0.2" fill-rule="evenodd" clip-rule="evenodd" fill="#FFFFFF" enable-background="new    " d="
								M27.77158,98.70796l76.45681,0.00001c1.52489,0,2.76106,1.23618,2.76106,2.76106l0,0
								c0,1.52489-1.23617,2.76106-2.76106,2.76106l-76.45681-0.00001c-1.52489,0-2.76106-1.23617-2.76106-2.76106l0,0
								C25.01052,99.94414,26.24669,98.70796,27.77158,98.70796z"/>
							
								<path id="Rectangle-2-Copy-7" opacity="0.2" fill-rule="evenodd" clip-rule="evenodd" fill="#FFFFFF" enable-background="new    " d="
								M27.77158,113.20354l76.45681,0.00001c1.52489,0,2.76106,1.23618,2.76106,2.76106l0,0
								c0,1.52489-1.23617,2.76106-2.76106,2.76106l-76.45681-0.00001c-1.52489,0-2.76106-1.23617-2.76106-2.76106l0,0
								C25.01052,114.43971,26.24669,113.20354,27.77158,113.20354z"/>
							
								<path id="Rectangle-2-Copy-6" opacity="0.2" fill-rule="evenodd" clip-rule="evenodd" fill="#FFFFFF" enable-background="new    " d="
								M27.77158,127.69911h76.45681c1.52489,0.00001,2.76106,1.23618,2.76106,2.76106l0,0
								c0,1.52489-1.23617,2.76106-2.76106,2.76106H27.77158c-1.52489,0-2.76106-1.23618-2.76106-2.76106l0,0
								C25.01052,128.93529,26.24669,127.69911,27.77158,127.69911z"/>
							<path id="Rectangle" fill-rule="evenodd" clip-rule="evenodd" fill="#FFFFFF" d="M28.01052,22.08851l75.97894,0.00001
								c1.65685,0,3,1.34315,3,3l-0.00001,56.12389c0,1.65685-1.34315,2.99999-3,2.99999H28.01052c-1.65685,0-3-1.34315-3-3
								l0.00001-56.12389C25.01052,23.43165,26.35367,22.08851,28.01052,22.08851z"/>
							<path id="Combined-Shape" fill-rule="evenodd" clip-rule="evenodd" fill="#F2547D" d="M82.14442,44.38425
								c1.16608,0.45385,1.91872,1.55434,1.91872,2.80745v16.06151c0,1.66077-1.35072,3.01229-3.01054,3.01229L50.95123,66.2655
								c-1.16006,0-2.19769-0.64864-2.70547-1.6909c-0.50978-1.04226-0.38133-2.25921,0.33116-3.17495l6.77371-7.99863
								c0.43151-0.60647,1.14601-1.04024,1.96086-1.16073c0.82087-0.11647,1.62569,0.09238,2.27797,0.59643l5.93477,6.60896
								c0.27697,0.1968,0.86102,0.14861,1.21826-0.24099l12.07025-14.0252C79.67779,44.23363,80.97834,43.9304,82.14442,44.38425z
								 M51.06315,46.2478c-1.72729,0-3.12631-1.39002-3.12631-3.10619c0-1.71618,1.39902-3.10619,3.12631-3.10619
								c1.72729,0,3.12632,1.39002,3.12632,3.1062C54.18946,44.85778,52.79044,46.2478,51.06315,46.2478z"/>
						</g>
					</g>
					
						<g id="Ebook-4" transform="translate(97.370928, 115.995874) rotate(-345.000000) translate(-97.370928, -115.995874) translate(31.340000, 37.960000)">
						<g>
							<g>
								<path fill-rule="evenodd" clip-rule="evenodd" fill="#F5C26B" d="M0,2.99425c0-1.65367,1.34945-2.99424,3.00502-2.99424
									l125.98994,0.00001c1.65962,0,3.00502,1.34863,3.00502,2.99424l-0.00002,150.01151
									c0,1.65367-1.34944,2.99423-3.00502,2.99423L3.00501,155.99998c-1.65962,0-3.00502-1.34863-3.00502-2.99423L0,2.99425z"/>
							</g>
							<path opacity="0.2" fill-rule="evenodd" clip-rule="evenodd" fill="#FFFFFF" enable-background="new    " d="
								M27.77158,113.20354l76.45681,0.00001c1.52489,0,2.76106,1.23618,2.76106,2.76106l0,0
								c0,1.52489-1.23617,2.76106-2.76106,2.76106l-76.45681-0.00001c-1.52489,0-2.76106-1.23617-2.76106-2.76106l0,0
								C25.01052,114.43971,26.24669,113.20354,27.77158,113.20354z"/>
							<path opacity="0.2" fill-rule="evenodd" clip-rule="evenodd" fill="#FFFFFF" enable-background="new    " d="
								M27.77158,127.69911l76.45681,0.00001c1.52489,0,2.76106,1.23617,2.76106,2.76105l0,0
								c0,1.52489-1.23617,2.76106-2.76106,2.76106H27.77157c-1.52489,0-2.76106-1.23618-2.76106-2.76106l0,0
								C25.01052,128.93529,26.24669,127.69911,27.77158,127.69911z"/>
							<path id="Fill-1" fill-rule="evenodd" clip-rule="evenodd" fill="#00BDA5" d="M65.99986,29.70891
								c-18.03329,0-32.65263,14.52525-32.65263,32.44247c0,17.91791,14.61934,32.44247,32.65263,32.44247
								c18.03397,0,32.65263-14.52456,32.65263-32.44247l-32.65263,0L65.99986,29.70891z"/>
							<path id="Fill-4" fill-rule="evenodd" clip-rule="evenodd" fill="#FFFFFF" d="M65.99986,29.68157l-0.00001,32.47008
								l32.68042,0C98.68027,44.21856,84.04842,29.68157,65.99986,29.68157"/>
						</g>
					</g>
				</g>
			</g>
		</g>
	</g>
</g>
</svg>
