<?xml version="1.0" encoding="UTF-8"?>
<svg width="30px" height="32px" viewBox="0 0 30 32" version="1.1" xmlns="http://www.w3.org/2000/svg" xmlns:xlink="http://www.w3.org/1999/xlink">
    <title>Logos/Sprocket/Color</title>
    <g id="✋Symbols-(DON'T-UPLOAD)" stroke="none" stroke-width="1" fill="none" fill-rule="evenodd">
        <g id="Navigation/Primary-Media-Navigation/Tablet/Idle" transform="translate(-18.000000, -9.000000)" fill="#FF7A59" fill-rule="nonzero">
            <g id="Logos/Sprocket" transform="translate(18.000000, 9.271186)">
                <path d="M23.072897,10.4857991 L23.072897,6.8183733 C24.0801387,6.35559185 24.7257444,5.36286797 24.7306722,4.26927425 L24.7306722,4.18354222 C24.7264158,2.62488399 23.4430422,1.36238267 21.8586154,1.35819552 L21.771466,1.35819552 C20.1870392,1.36238267 18.9036655,2.62488399 18.8994091,4.18354222 L18.8994091,4.26927425 C18.9043369,5.36286797 19.5499426,6.35559185 20.5571843,6.8183733 L20.5571843,10.4934197 C19.1384891,10.7068329 17.8022962,11.285196 16.6838777,12.1699572 L6.43123518,4.314998 C6.83366473,2.83282905 6.11649117,1.27730277 4.71785155,0.59872423 C3.31921192,-0.079854313 1.62811068,0.307248331 0.677678617,1.52354268 C-0.27275345,2.73983703 -0.218172115,4.44703442 0.808077689,5.60217058 C1.83432749,6.75730673 3.5468143,7.03910296 4.89934242,6.27540377 L14.9796228,13.9950968 C13.1214312,16.7528978 13.1713943,20.3492052 15.1055053,23.0560199 L12.0378465,26.0737874 C11.7915997,25.9966313 11.5351502,25.9555478 11.2767417,25.9518574 C9.80606362,25.9518574 8.61384345,27.1246877 8.61384345,28.5714472 C8.61384345,30.0182067 9.80606362,31.1910371 11.2767417,31.1910371 C12.7474198,31.1910371 13.93964,30.0182067 13.93964,28.5714472 C13.9360013,28.3172317 13.8942359,28.0649368 13.8156942,27.8227208 L16.8504299,24.837341 C19.5644844,26.8766969 23.2806506,27.0432843 26.1720005,25.2552061 C29.0633503,23.467128 30.5216628,20.1005223 29.8300077,16.8104674 C29.1383527,13.5204126 26.4422257,10.9990007 23.067087,10.4857991 M21.810199,22.5682999 C19.4923568,22.563041 17.6173062,20.7110985 17.6212182,18.43095 C17.6251426,16.1508015 19.5065472,14.3051058 21.8243943,14.3075534 C24.1422414,14.3100059 26.0196096,16.1596748 26.0185471,18.4398264 C26.0185471,20.7209715 24.1387406,22.5702051 21.8198823,22.5702051" id="Shape"></path>
            </g>
        </g>
    </g>
</svg>