<svg id="Layer_1" data-name="Layer 1" xmlns="http://www.w3.org/2000/svg" viewBox="0 0 126.42 141.52"><defs><style>.cls-1{fill:#213343;}.cls-2{fill:#fff;}</style></defs><rect class="cls-1" width="126.42" height="141.52"/><path class="cls-2" d="M38.89,24.49H54.05a2.14,2.14,0,0,1,2.13,2.15V58.13a2.14,2.14,0,0,0,2.14,2.15h9.3a2.14,2.14,0,0,0,2.13-2.15V26.64a2.14,2.14,0,0,1,2.14-2.15H87.16a2.14,2.14,0,0,1,2.13,2.15v84.08a2.13,2.13,0,0,1-2.13,2.14H71.89a2.14,2.14,0,0,1-2.14-2.14V76.39a2.14,2.14,0,0,0-2.13-2.15h-9.3a2.14,2.14,0,0,0-2.14,2.15v34.33a2.13,2.13,0,0,1-2.13,2.14H38.89a2.14,2.14,0,0,1-2.14-2.14V26.64A2.14,2.14,0,0,1,38.89,24.49Z"/><path class="cls-2" d="M61.08,31.48V62a3.26,3.26,0,0,0,3.25,3.25H73.4A3.26,3.26,0,0,0,76.65,62V31.48a.91.91,0,0,1,.91-.91H89.12V28.23H77.56a3.25,3.25,0,0,0-3.25,3.25V62a.91.91,0,0,1-.91.91H64.33a.91.91,0,0,1-.91-.91V31.48a3.25,3.25,0,0,0-3.25-3.25H45.38a3.25,3.25,0,0,0-3.25,3.25V86h2.34V31.48a.91.91,0,0,1,.91-.91H60.17A.91.91,0,0,1,61.08,31.48Z"/><path class="cls-2" d="M93.36,56.45v56.6a.91.91,0,0,1-.91.91H77.56a.91.91,0,0,1-.91-.91V79.74a3.26,3.26,0,0,0-3.25-3.25H64.33a3.26,3.26,0,0,0-3.25,3.25v33.31a.91.91,0,0,1-.91.91H48.82v2.34H60.17a3.26,3.26,0,0,0,3.25-3.25V79.74a.91.91,0,0,1,.91-.91H73.4a.91.91,0,0,1,.91.91v33.31a3.26,3.26,0,0,0,3.25,3.25H92.45a3.26,3.26,0,0,0,3.25-3.25V56.45Z"/><path class="cls-1" d="M55.24,27.44V58.28a3.3,3.3,0,0,0,3.31,3.28h9.23a3.29,3.29,0,0,0,3.31-3.28V27.44a.93.93,0,0,1,.93-.92H93V24.16H72a3.29,3.29,0,0,0-3.31,3.28V58.28a.93.93,0,0,1-.93.92H58.55a.92.92,0,0,1-.92-.92V27.44a3.3,3.3,0,0,0-3.31-3.28h-15A3.3,3.3,0,0,0,36,27.44v91.48h2.38V27.44a.93.93,0,0,1,.93-.92h15A.92.92,0,0,1,55.24,27.44Z"/></svg>